<?xml version="1.0" encoding="utf-8"?>
<!-- Generator: Adobe Illustrator 24.1.3, SVG Export Plug-In . SVG Version: 6.00 Build 0)  -->
<svg version="1.1" id="レイヤー_1" xmlns="http://www.w3.org/2000/svg" xmlns:xlink="http://www.w3.org/1999/xlink" x="0px"
	 y="0px" viewBox="0 0 142 142" style="enable-background:new 0 0 142 142;" xml:space="preserve">
<style type="text/css">
	.st0{fill:#00629B;}
</style>
<g>
	<path class="st0" d="M120.1,36c4.8-1.4,9.8-2,14.8-2v18.3C131.5,45.6,126.5,40,120.1,36z"/>
	<path class="st0" d="M89,92.5l4.7-5c9.1,2.4,18.5-3.1,21-12.2c2.4-9.1-3.1-18.5-12.2-21c-1.7-0.5-3.5-0.6-5.3-0.5
		c-4.9,0.3-9.7,1.4-14.2,3.4c-2.3-6.4-6-12.1-10.9-16.7c7.5-3.9,15.7-6.1,24.1-6.5c20.4-1.1,37.8,14.5,38.8,35
		c1.1,20.4-14.6,37.8-35,38.8c-7.9,0.5-15.6-1.7-22.1-6C81.8,99.2,85.5,96,89,92.5z"/>
	<path class="st0" d="M109.1,64.9L85.7,89.4c-10.5,11-24.8,17.6-39.9,18.4c-4.2,0.2-8.6-0.3-12.6-1.5c6.4-3.2,12.2-7.4,17.2-12.6
		l8.6-9c4.7-2.1,8.9-5.1,12.5-8.9L85.4,61c3.7-1.6,7.8-2.5,11.8-2.7C102.2,58,106.8,60.5,109.1,64.9z"/>
	<path class="st0" d="M9.1,83.7c-7-19.2,2.9-40.4,22-47.4c19.2-7,40.4,2.9,47.4,22c0.4,0.9,0.6,1.8,0.9,2.7L68.2,72.7
		c-1.9,2.1-4.2,3.8-6.5,5.3c-0.5-2.3-0.7-4.8-0.7-7.1c0-9.5-7.7-17.2-17.2-17.2s-17.2,7.7-17.2,17.2c0,1.7,0.3,3.4,0.8,5.1
		C22.5,80.8,16,83.5,9.1,83.7z"/>
	<path class="st0" d="M49.3,59.5c4.4,2.1,7.2,6.6,7.2,11.5c0,3,0.3,5.9,0.9,8.8L47.1,90.7c-10.5,10.9-25,17.2-40.2,17.3V88.1h1.4
		c8.9,0,17.3-3.6,23.3-10L49.3,59.5z"/>
</g>
</svg>
