<svg viewBox="0 0 30 30" fill="none" xmlns="http://www.w3.org/2000/svg">
<path fill-rule="evenodd" clip-rule="evenodd" d="M8 10C7.73478 10 7.48043 10.1054 7.29289 10.2929C7.10536 10.4804 7 10.7348 7 11V22C7 22.2652 7.10536 22.5196 7.29289 22.7071C7.48043 22.8946 7.73478 23 8 23H19C19.2652 23 19.5196 22.8946 19.7071 22.7071C19.8946 22.5196 20 22.2652 20 22V16C20 15.4477 20.4477 15 21 15C21.5523 15 22 15.4477 22 16V22C22 22.7957 21.6839 23.5587 21.1213 24.1213C20.5587 24.6839 19.7957 25 19 25H8C7.20435 25 6.44129 24.6839 5.87868 24.1213C5.31607 23.5587 5 22.7956 5 22V11C5 10.2044 5.31607 9.44129 5.87868 8.87868C6.44129 8.31607 7.20435 8 8 8H14C14.5523 8 15 8.44772 15 9C15 9.55228 14.5523 10 14 10H8Z" />
<path fill-rule="evenodd" clip-rule="evenodd" d="M17 6C17 5.44772 17.4477 5 18 5H24C24.5523 5 25 5.44772 25 6V12C25 12.5523 24.5523 13 24 13C23.4477 13 23 12.5523 23 12V7H18C17.4477 7 17 6.55228 17 6Z" />
<path fill-rule="evenodd" clip-rule="evenodd" d="M24.7071 5.29289C25.0976 5.68342 25.0976 6.31658 24.7071 6.70711L13.7071 17.7071C13.3166 18.0976 12.6834 18.0976 12.2929 17.7071C11.9024 17.3166 11.9024 16.6834 12.2929 16.2929L23.2929 5.29289C23.6834 4.90237 24.3166 4.90237 24.7071 5.29289Z" />
</svg>
