<svg viewBox="0 0 30 30" fill="none" xmlns="http://www.w3.org/2000/svg">
<path fill-rule="evenodd" clip-rule="evenodd" d="M12.7966 11.7763V10.2466C12.7966 9.96788 12.8111 9.87492 12.854 9.73191C12.9687 9.33881 13.356 9.04579 13.8147 9.04579C14.2735 9.04579 14.6607 9.34594 14.7754 9.73191C14.8184 9.87492 14.8328 9.96788 14.8328 10.2466V12.6054C14.8328 12.7484 14.8328 12.8913 14.8041 13.02C14.7253 13.3773 14.4027 13.6991 14.0441 13.7777C13.9151 13.8062 13.7717 13.8062 13.6283 13.8062H11.2624C10.9828 13.8062 10.8896 13.792 10.7461 13.7491C10.359 13.6347 10.058 13.2487 10.058 12.7913C10.058 12.3338 10.359 11.9478 10.7461 11.8334C10.8896 11.7905 10.9828 11.7763 11.2624 11.7763H12.7966ZM21.2279 22.4697H8.53803V11.326C8.53803 11.183 8.58823 11.0615 8.68862 10.9614L11.9793 7.68043C12.0797 7.58047 12.2016 7.53042 12.345 7.53042H21.2279V22.4697ZM22.6691 5.01426C22.6045 5.00713 22.5185 5 22.3536 5H12.0079C11.8934 5 11.7787 5.00713 11.6997 5.01426C11.2265 5.05718 10.8035 5.27875 10.4666 5.61468L6.61653 9.45316C6.27972 9.78922 6.05735 10.2108 6.01443 10.6827C6.00715 10.7612 6 10.8756 6 10.9899V23.5918C6 23.7562 6.00715 23.8421 6.01443 23.9064C6.07165 24.4425 6.55918 24.9284 7.09691 24.9856C7.16153 24.9929 7.24749 25 7.41239 25H22.3536C22.5185 25 22.6045 24.9929 22.6691 24.9856C23.2068 24.9284 23.6943 24.4425 23.7517 23.9064C23.7587 23.8421 23.766 23.7562 23.766 23.5918V6.40815C23.766 6.24375 23.7587 6.15792 23.7517 6.09362C23.6943 5.5575 23.2068 5.07144 22.6691 5.01426Z" />
</svg>
