<svg viewBox="0 0 30 30" fill="none" xmlns="http://www.w3.org/2000/svg">
<path fill-rule="evenodd" clip-rule="evenodd" d="M7 8C6.45228 8 6 8.45228 6 9V21C6 21.5477 6.45228 22 7 22H23C23.5477 22 24 21.5477 24 21V9C24 8.45228 23.5477 8 23 8H7ZM4 9C4 7.34772 5.34772 6 7 6H23C24.6523 6 26 7.34772 26 9V21C26 22.6523 24.6523 24 23 24H7C5.34772 24 4 22.6523 4 21V9Z" />
<path fill-rule="evenodd" clip-rule="evenodd" d="M4.18085 8.4265C4.49757 7.97405 5.1211 7.86402 5.57355 8.18073L15.0001 14.7793L24.4266 8.18073C24.8791 7.86402 25.5026 7.97405 25.8193 8.4265C26.136 8.87895 26.026 9.50248 25.5735 9.8192L15.5735 16.8192C15.2292 17.0602 14.7709 17.0602 14.4266 16.8192L4.42662 9.8192C3.97417 9.50248 3.86414 8.87895 4.18085 8.4265Z" />
</svg>
