<?xml version="1.0" encoding="utf-8"?>
<!-- Generator: Adobe Illustrator 24.1.3, SVG Export Plug-In . SVG Version: 6.00 Build 0)  -->
<svg version="1.1" id="レイヤー_1" xmlns="http://www.w3.org/2000/svg" xmlns:xlink="http://www.w3.org/1999/xlink" x="0px"
	 y="0px" viewBox="0 0 141.9 81.9" style="enable-background:new 0 0 141.9 81.9;" xml:space="preserve">
<style type="text/css">
	.st0{opacity:5.000000e-02;}
	.st1{fill:#FFFFFF;}
</style>
<g class="st0">
	<path class="st1" d="M125.4,2.3c5.3-1.5,10.8-2.2,16.4-2.2v20.3C138,12.9,132.4,6.7,125.4,2.3z"/>
	<path class="st1" d="M90.9,64.8l5.2-5.5c10.1,2.7,20.5-3.4,23.2-13.5c2.7-10.1-3.4-20.5-13.5-23.2c-1.9-0.5-3.9-0.7-5.9-0.6
		c-5.4,0.3-10.7,1.6-15.7,3.8c-2.5-7.1-6.6-13.4-12.1-18.5C80.4,3,89.5,0.6,98.8,0.1c22.6-1.2,41.8,16.1,43,38.7s-16.2,41.8-38.8,43
		c-8.7,0.5-17.3-1.9-24.5-6.6C83,72.2,87.1,68.7,90.9,64.8z"/>
	<path class="st1" d="M113.2,34.2L87.3,61.4C75.7,73.6,59.9,80.9,43.1,81.8c-4.7,0.2-9.5-0.3-14-1.7c7.1-3.5,13.5-8.2,19-13.9
		l9.5-10c5.2-2.3,9.9-5.7,13.8-9.8L87,29.9c4.1-1.8,8.6-2.8,13.1-3C105.5,26.6,110.6,29.4,113.2,34.2z"/>
	<path class="st1" d="M2.5,55C-5.2,33.8,5.7,10.3,26.9,2.5c21.2-7.8,44.7,3.2,52.5,24.4c0.4,1,0.7,2,1,3l-12.5,13
		c-2.1,2.3-4.6,4.2-7.2,5.9c-0.5-2.6-0.8-5.3-0.8-7.9c0-10.5-8.5-19-19-19s-19,8.5-19,19c0,1.9,0.3,3.8,0.9,5.7
		C17.3,51.8,10.1,54.8,2.5,55z"/>
	<path class="st1" d="M47,28.3c4.9,2.3,8,7.3,8,12.7c0,3.3,0.3,6.5,1,9.7L44.5,62.8C32.9,74.9,16.8,81.8,0,81.9v-22h1.6
		c9.8,0,19.1-4,25.8-11.1L47,28.3z"/>
</g>
</svg>
