<svg viewBox="0 0 230 153" fill="none" xmlns="http://www.w3.org/2000/svg">
<path d="M172.7 3.7C178.1 2.2 183.7 1.5 189.3 1.5V22C185.6 14.5 179.8 8.2 172.7 3.7Z" />
<path d="M137.8 67.1L143 61.6C153.3 64.2 163.8 58 166.4 47.7C169 37.4 162.8 26.9 152.5 24.3C150.6 23.8 148.7 23.6 146.7 23.7C141.2 24 135.9 25.3 130.9 27.5C128.4 20.3 124.1 13.9 118.5 8.80003C126.9 4.50003 136.1 2.00003 145.5 1.50003C168.4 0.300032 187.9 17.9 189.1 40.8C190.3 63.7 172.7 83.2 149.8 84.4C141 84.9 132.3 82.5 124.9 77.7C129.7 74.6 133.9 71.1 137.8 67.1Z" />
<path d="M160.4 36.1001L134.2 63.7001C122.4 76.1001 106.4 83.5001 89.3 84.4001C84.5 84.7001 79.6 84.1001 75 82.7001C82.2 79.2001 88.8 74.4001 94.3 68.6001L104 58.4001C109.3 56.0001 114 52.7001 118 48.5001L133.9 31.8001C138.1 30.0001 142.6 29.0001 147.1 28.8001C152.6 28.4001 157.7 31.3001 160.4 36.1001Z" />
<path d="M48.2003 57.2001C40.6003 35.6001 51.9003 11.9001 73.5003 4.20006C94.8003 -3.29994 118.2 7.50006 126.2 28.6001C126.6 29.6001 126.9 30.6001 127.2 31.6001L114.5 44.9001C112.3 47.2001 109.9 49.2001 107.2 50.9001C106.7 48.3001 106.4 45.6001 106.4 42.9001C106.4 32.3001 97.8003 23.7001 87.1003 23.7001C76.5003 23.7001 67.9003 32.3001 67.9003 43.0001C67.9003 44.9001 68.2003 46.8001 68.8003 48.7001C63.1003 53.9001 55.8003 57.0001 48.2003 57.2001Z" />
<path d="M93.3001 30.1001C98.2001 32.5001 101.4 37.5001 101.4 43.0001C101.4 46.3001 101.8 49.6001 102.5 52.8001L90.7001 65.0001C79.0001 77.4001 62.7001 84.4001 45.6001 84.4001V62.2001H47.3001C57.2001 62.2001 66.7001 58.1001 73.5001 51.0001L93.3001 30.1001Z" />
<path d="M1.3999 142.2V113.2H18.5999C18.7999 114.6 18.7999 116 18.5999 117.4H6.4999V125.5H18.1999C18.3999 126.9 18.3999 128.3 18.1999 129.6H6.4999V138H18.5999C18.7999 139.4 18.7999 140.8 18.5999 142.2H1.3999Z" />
<path d="M32.5001 116.1C30.7001 116.3 28.9001 116.3 27.2001 116.1L27.1001 111.8C28.9001 111.6 30.8001 111.6 32.6001 111.8L32.5001 116.1ZM27.4001 120.1C29.1001 119.9 30.7001 119.9 32.4001 120.1V142.2C30.7001 142.4 29.1001 142.4 27.4001 142.2V120.1Z" />
<path d="M55.5001 141.6L55.8001 138.4H55.6001C54.8001 141.1 52.1001 142 48.5001 142C44.3001 142 41.1001 140.2 41.1001 135.5V126C41.1001 121.2 44.3001 119.5 48.5001 119.5C52.1001 119.5 54.9001 120.4 55.6001 123.1H55.8001L56.2001 119.9C57.7001 119.7 59.1001 119.7 60.6001 119.9V143.1C60.6001 149.1 57.1001 151.6 49.9001 151.6C47.4001 151.6 44.9001 151.4 42.5001 151C42.4001 149.6 42.6001 148.2 42.9001 146.9C45.1001 147.3 47.3001 147.5 49.6001 147.5C52.8001 147.5 55.6001 146.8 55.6001 143.6L55.5001 141.6ZM55.5001 127.2C54.6001 124.6 53.6001 123.8 50.4001 123.8C48.0001 123.8 46.1001 124.3 46.1001 128.1V133.4C46.1001 137.1 48.0001 137.6 50.4001 137.6C53.6001 137.6 54.6001 136.8 55.5001 134.3V127.2Z" />
<path d="M84.2998 128.1C84.2998 124.3 82.3998 123.9 79.8998 123.9C76.6998 123.9 75.6998 124.7 74.7998 127.3V142.3C73.0998 142.5 71.4998 142.5 69.7998 142.3V111.3C71.4998 111.1 73.0998 111.1 74.7998 111.3V119.6L74.4998 123.2H74.7998C75.4998 120.5 78.2998 119.6 81.8998 119.6C86.0998 119.6 89.2998 121.2 89.2998 125.9V142.3C87.5998 142.5 85.9998 142.5 84.2998 142.3V128.1Z" />
<path d="M100.3 124.3H97.0001C96.8001 123 96.8001 121.7 97.0001 120.4L100.4 120.2V114.4C102.1 114.2 103.7 114.2 105.4 114.4V120.1H111.8C112 121.5 112 122.9 111.8 124.3H105.4V134.1C105.4 138.1 107.3 138.4 109 138.4C109.9 138.4 110.9 138.3 111.8 138.1C112 139.5 112 140.9 111.8 142.3C110.4 142.6 109 142.7 107.6 142.7C103.9 142.7 100.4 141.2 100.4 135.7L100.3 124.3Z" />
<path d="M139 130L136.8 130.2V142.3C135.1 142.5 133.4 142.5 131.7 142.3V113.3C133.4 113.1 135.1 113.1 136.8 113.3V125.7L139.4 125.4L147 113.2C148.8 113 150.7 113 152.5 113.2L143.3 127.5L153.2 142.2C151.2 142.4 149.2 142.4 147.3 142.2L139 130Z" />
<path d="M174.5 128.1C174.5 124.3 172.6 123.9 170.1 123.9C166.9 123.9 165.9 124.7 165 127.3V142.3C163.3 142.5 161.7 142.5 160 142.3V120C161.5 119.8 162.9 119.8 164.4 120L164.8 123.2H165.1C165.8 120.5 168.6 119.6 172.2 119.6C176.4 119.6 179.6 121.2 179.6 125.9V142.3C177.9 142.5 176.3 142.5 174.6 142.3L174.5 128.1Z" />
<path d="M206.6 135.8C206.6 140.9 202.7 142.8 197 142.8C191.3 142.8 187.4 141 187.4 135.8V126.6C187.4 121.3 191.3 119.6 197 119.6C202.7 119.6 206.6 121.3 206.6 126.6V135.8ZM201.6 127.6C201.6 124.3 199.5 123.8 197 123.8C194.5 123.8 192.4 124.2 192.4 127.6V134.7C192.4 138 194.5 138.4 197 138.4C199.5 138.4 201.6 138 201.6 134.7V127.6Z" />
<path d="M216.6 124.3H213.2C213 123 213 121.7 213.2 120.4L216.6 120.2V114.4C218.3 114.2 219.9 114.2 221.6 114.4V120.1H228C228.2 121.5 228.2 122.9 228 124.3H221.6V134.1C221.6 138.1 223.5 138.4 225.2 138.4C226.1 138.4 227.1 138.3 228 138.1C228.2 139.5 228.2 140.9 228 142.3C226.6 142.6 225.2 142.7 223.8 142.7C220.1 142.7 216.6 141.2 216.6 135.7V124.3Z" />
</svg>
