<svg viewBox="0 0 142 82" fill="none" xmlns="http://www.w3.org/2000/svg">
<path d="M125.4 2.30999C130.7 0.809985 136.2 0.109985 141.8 0.109985V20.41C138 12.91 132.4 6.70999 125.4 2.30999Z" />
<path d="M90.9001 64.81L96.1001 59.31C106.2 62.01 116.6 55.91 119.3 45.81C122 35.71 115.9 25.31 105.8 22.61C103.9 22.11 101.9 21.91 99.9001 22.01C94.5001 22.31 89.2001 23.61 84.2001 25.81C81.7001 18.71 77.6001 12.41 72.1001 7.30998C80.4001 3.00998 89.5001 0.609984 98.8001 0.109984C121.4 -1.09002 140.6 16.21 141.8 38.81C143 61.41 125.6 80.61 103 81.81C94.3001 82.31 85.7001 79.91 78.5001 75.21C83.0001 72.21 87.1001 68.71 90.9001 64.81Z" />
<path d="M113.2 34.21L87.3001 61.41C75.7001 73.61 59.9001 80.91 43.1001 81.81C38.4001 82.01 33.6001 81.51 29.1001 80.11C36.2001 76.61 42.6001 71.91 48.1001 66.21L57.6001 56.21C62.8001 53.91 67.5001 50.51 71.4001 46.41L87.0001 29.91C91.1001 28.11 95.6001 27.11 100.1 26.91C105.5 26.61 110.6 29.41 113.2 34.21Z" />
<path d="M2.50023 55.01C-5.19977 33.81 5.70023 10.31 26.9002 2.50995C48.1002 -5.29005 71.6002 5.70995 79.4002 26.91C79.8002 27.91 80.1002 28.91 80.4002 29.91L67.9002 42.91C65.8002 45.21 63.3002 47.11 60.7002 48.81C60.2002 46.21 59.9002 43.51 59.9002 40.91C59.9002 30.41 51.4002 21.91 40.9002 21.91C30.4002 21.91 21.9002 30.41 21.9002 40.91C21.9002 42.81 22.2002 44.71 22.8002 46.61C17.3002 51.81 10.1002 54.81 2.50023 55.01Z" />
<path d="M47 28.3099C51.9 30.6099 55 35.6099 55 41.0099C55 44.3099 55.3 47.5099 56 50.7099L44.5 62.8099C32.9 74.9099 16.8 81.8099 0 81.9099V59.9099H1.6C11.4 59.9099 20.7 55.9099 27.4 48.8099L47 28.3099Z" />
</svg>
