<svg viewBox="0 0 145 132" fill="none" xmlns="http://www.w3.org/2000/svg">
<path d="M126.8 3.7C132.1 2.2 137.6 1.5 143.2 1.5V21.8C139.4 14.3 133.8 8.1 126.8 3.7Z" />
<path d="M92.3 66.2L97.5 60.7C107.6 63.4 118 57.3 120.7 47.2C123.4 37.1 117.3 26.7 107.2 24C105.3 23.5 103.3 23.3 101.3 23.4C95.9 23.7 90.6 25 85.6 27.2C83.1 20.1 79 13.8 73.5 8.7C81.8 4.4 90.9 2 100.2 1.5C122.8 0.299999 142 17.6 143.2 40.2C144.4 62.8 127 82 104.4 83.2C95.7 83.7 87.1 81.3 79.9 76.6C84.4 73.6 88.5 70.1 92.3 66.2Z" />
<path d="M114.6 35.6L88.7 62.8C77.1 75 61.3 82.3 44.5 83.2C39.8 83.4 35 82.9 30.5 81.5C37.6 78 44 73.3 49.5 67.6L59 57.6C64.2 55.3 68.9 51.9 72.8 47.8L88.4 31.3C92.5 29.5 97 28.5 101.5 28.3C106.9 28 112 30.8 114.6 35.6Z" />
<path d="M3.90014 56.4001C-3.79986 35.2001 7.10014 11.7001 28.3001 3.90009C49.5001 -3.89991 73.0001 7.10009 80.8001 28.3001C81.2001 29.3001 81.5001 30.3001 81.8001 31.3001L69.3001 44.3001C67.2001 46.6001 64.7001 48.5001 62.1001 50.2001C61.6001 47.6001 61.3001 44.9001 61.3001 42.3001C61.3001 31.8001 52.8001 23.3001 42.3001 23.3001C31.8001 23.3001 23.3001 31.8001 23.3001 42.3001C23.3001 44.2001 23.6001 46.1001 24.2001 48.0001C18.7001 53.2001 11.5001 56.2001 3.90014 56.4001Z" />
<path d="M48.3999 29.7002C53.2999 32.0002 56.3999 37.0002 56.3999 42.4002C56.3999 45.7002 56.6999 48.9002 57.3999 52.1002L45.8999 64.2002C34.2999 76.3002 18.1999 83.2002 1.3999 83.3002V61.3002H2.9999C12.7999 61.3002 22.0999 57.3002 28.7999 50.2002L48.3999 29.7002Z" />
<path d="M1.3999 124.6V106.7H11.9999C12.0999 107.6 12.0999 108.4 11.9999 109.3H4.5999V114.3H11.7999C11.8999 115.1 11.8999 116 11.7999 116.9H4.5999V122.1H12.0999C12.1999 123 12.1999 123.8 12.0999 124.7L1.3999 124.6Z" />
<path d="M20.5998 108.4C19.4998 108.5 18.3998 108.5 17.2998 108.4V105.8C18.3998 105.7 19.5998 105.7 20.6998 105.8L20.5998 108.4ZM17.3998 110.9C18.3998 110.8 19.4998 110.8 20.4998 110.9V124.6C19.4998 124.7 18.3998 124.7 17.3998 124.6V110.9Z" />
<path d="M34.7999 124.2L34.9999 122.2H34.8999C34.3999 123.9 32.6999 124.4 30.4999 124.4C27.8999 124.4 25.8999 123.3 25.8999 120.4V114.5C25.8999 111.6 27.7999 110.5 30.4999 110.5C32.6999 110.5 34.3999 111.1 34.8999 112.7H34.9999L35.1999 110.7C36.0999 110.6 36.9999 110.6 37.8999 110.7V125C37.8999 128.7 35.6999 130.3 31.2999 130.3C29.7999 130.3 28.1999 130.2 26.6999 129.9C26.6999 129 26.7999 128.2 26.9999 127.3C28.3999 127.5 29.6999 127.7 31.0999 127.7C33.0999 127.7 34.7999 127.3 34.7999 125.3V124.2ZM34.7999 115.3C34.1999 113.7 33.5999 113.2 31.5999 113.2C30.0999 113.2 28.8999 113.5 28.8999 115.8V119.1C28.8999 121.4 30.0999 121.7 31.5999 121.7C33.5999 121.7 34.1999 121.2 34.7999 119.7V115.3Z" />
<path d="M52.5 115.8C52.5 113.5 51.3 113.2 49.8 113.2C47.8 113.2 47.2 113.7 46.6 115.3V124.6C45.6 124.7 44.5 124.7 43.5 124.6V105.4C44.5 105.3 45.6 105.3 46.6 105.4V110.5L46.4 112.7H46.6C47.1 111 48.7 110.5 51 110.5C53.6 110.5 55.6 111.5 55.6 114.4V124.5C54.6 124.6 53.5 124.6 52.5 124.5V115.8Z" />
<path d="M62.5002 113.5H60.4002C60.3002 112.7 60.3002 111.9 60.4002 111.1L62.5002 111V107.4C63.5002 107.3 64.6002 107.3 65.6002 107.4V111H69.6002C69.7002 111.9 69.7002 112.7 69.6002 113.6H65.6002V119.6C65.6002 122.1 66.8002 122.2 67.8002 122.2C68.4002 122.2 68.9002 122.2 69.5002 122C69.6002 122.9 69.6002 123.7 69.5002 124.6C68.6002 124.8 67.8002 124.8 66.9002 124.8C64.6002 124.8 62.4002 123.9 62.4002 120.5V113.5H62.5002Z" />
<path d="M86.3002 117L84.9002 117.1V124.5C83.9002 124.6 82.8002 124.6 81.7002 124.5V106.6C82.7002 106.5 83.8002 106.5 84.9002 106.6V114.3L86.5002 114.1L91.2002 106.6C92.3002 106.5 93.5002 106.5 94.6002 106.6L88.9002 115.5L95.0002 124.6C93.8002 124.7 92.6002 124.7 91.3002 124.6L86.3002 117Z" />
<path d="M108.2 115.8C108.2 113.5 107 113.2 105.5 113.2C103.5 113.2 102.9 113.7 102.3 115.3V124.6C101.3 124.7 100.2 124.7 99.2002 124.6V110.8C100.1 110.7 101 110.7 101.9 110.8L102.1 112.8H102.3C102.7 111.1 104.4 110.6 106.7 110.6C109.3 110.6 111.3 111.6 111.3 114.5V124.6C110.3 124.7 109.2 124.7 108.2 124.6V115.8V115.8Z" />
<path d="M128 120.6C128 123.8 125.6 124.9 122 124.9C118.4 124.9 116 123.8 116 120.6V114.9C116 111.6 118.4 110.6 122 110.6C125.6 110.6 128 111.7 128 114.9V120.6ZM124.9 115.5C124.9 113.4 123.6 113.2 122 113.2C120.4 113.2 119.2 113.5 119.2 115.5V119.9C119.2 121.9 120.5 122.2 122 122.2C123.5 122.2 124.9 121.9 124.9 119.9V115.5Z" />
<path d="M134.3 113.5H132.2C132.1 112.7 132.1 111.9 132.2 111.1L134.3 111V107.4C135.3 107.3 136.4 107.3 137.4 107.4V111H141.3C141.4 111.9 141.4 112.7 141.3 113.6H137.4V119.6C137.4 122.1 138.6 122.2 139.6 122.2C140.2 122.2 140.7 122.2 141.3 122C141.4 122.9 141.4 123.8 141.3 124.6C140.4 124.8 139.6 124.8 138.7 124.8C136.4 124.8 134.3 123.9 134.3 120.5V113.5Z" />
</svg>
