<svg viewBox="0 0 341 48" fill="none" xmlns="http://www.w3.org/2000/svg">
<path d="M69.5239 1.62383C72.5239 0.823828 75.5239 0.423828 78.6239 0.423828V11.6238C76.5239 7.52383 73.4239 4.02383 69.5239 1.62383Z" />
<path d="M50.4238 36.2239L53.3238 33.2239C58.9238 34.6239 64.7238 31.3239 66.1238 25.6239C67.5238 20.0239 64.2238 14.2239 58.5238 12.8239C57.5238 12.5239 56.4238 12.4239 55.3238 12.5239C52.3238 12.7239 49.3238 13.4239 46.6238 14.6239C45.2238 10.7239 42.9238 7.22391 39.9238 4.42391C44.5238 2.02391 49.5238 0.723915 54.7238 0.423915C67.2238 -0.276085 77.9238 9.32391 78.6238 21.8239C79.3238 34.3239 69.7238 44.9239 57.2238 45.6239C52.4238 45.9239 47.6238 44.6239 43.5238 41.9239C46.1238 40.3239 48.4238 38.3239 50.4238 36.2239Z" />
<path d="M62.8241 19.2239L48.5241 34.3239C42.1241 41.1239 33.3241 45.1239 24.0241 45.6239C21.4241 45.7239 18.7241 45.4239 16.2241 44.6239C20.1241 42.7239 23.7241 40.1239 26.7241 36.9239L32.0241 31.4239C34.9241 30.1239 37.5241 28.3239 39.7241 26.0239L48.3241 17.0239C50.6241 16.0239 53.0241 15.5239 55.5241 15.4239C58.5241 15.1239 61.3241 16.6239 62.8241 19.2239Z" />
<path d="M1.52393 30.8239C-2.97607 19.1239 2.82393 6.02393 14.5239 1.52393C26.2239 -2.97607 39.3239 2.82393 43.8239 14.5239C43.9239 14.8239 44.0239 15.0239 44.1239 15.3239C44.3239 15.8239 44.5239 16.4239 44.6239 16.9239L37.7239 24.1239C36.5239 25.4239 35.2239 26.5239 33.7239 27.4239C33.4239 26.0239 33.3239 24.5239 33.3239 23.0239C33.0239 17.2239 28.1239 12.7239 22.3239 13.0239C16.9239 13.2239 12.5239 17.6239 12.3239 23.0239C12.3239 24.1239 12.4239 25.1239 12.7239 26.1239C9.72393 29.0239 5.72393 30.6239 1.52393 30.8239Z" />
<path d="M26.2241 16.0239C28.9241 17.3239 30.6241 20.0239 30.6241 23.0239C30.6241 24.8239 30.8241 26.6239 31.2241 28.4239L24.8241 35.1239C18.4241 41.9239 9.52412 45.7239 0.224121 45.7239V33.5239H1.12412C6.52412 33.5239 11.7241 31.3239 15.4241 27.4239L26.2241 16.0239Z" />
<path d="M108.924 37.8241V8.22412H126.524C126.724 9.62412 126.724 11.1241 126.524 12.5241H114.124V20.7241H126.124C126.324 22.1241 126.324 23.5241 126.124 24.9241H114.124V33.5241H126.524C126.724 34.9241 126.724 36.4241 126.524 37.8241H108.924Z" />
<path d="M140.624 11.124C138.824 11.324 137.024 11.324 135.224 11.124L135.124 6.72397C137.024 6.52397 138.924 6.52397 140.724 6.72397L140.624 11.124ZM135.424 15.224C137.124 15.024 138.824 15.024 140.524 15.224V37.824C138.824 38.024 137.124 38.024 135.424 37.824V15.224Z" />
<path d="M164.124 37.124L164.424 33.824H164.224C163.424 36.524 160.624 37.524 156.924 37.524C152.624 37.524 149.424 35.724 149.424 30.924V21.224C149.424 16.324 152.624 14.624 156.924 14.624C160.624 14.624 163.424 15.624 164.224 18.324H164.424L164.824 15.024C166.324 14.824 167.824 14.824 169.224 15.024V38.624C169.224 44.824 165.624 47.324 158.324 47.324C155.824 47.324 153.224 47.124 150.724 46.724C150.624 45.324 150.824 43.924 151.124 42.524C153.324 42.924 155.624 43.124 157.924 43.124C161.224 43.124 164.024 42.424 164.024 39.124L164.124 37.124ZM164.124 22.524C163.224 19.924 162.224 19.124 158.924 19.124C156.424 19.124 154.524 19.624 154.524 23.524V28.924C154.524 32.624 156.424 33.224 158.924 33.224C162.224 33.224 163.224 32.424 164.124 29.824V22.524Z" />
<path d="M193.424 23.3241C193.424 19.5241 191.524 19.0241 189.024 19.0241C185.724 19.0241 184.724 19.8241 183.824 22.4241V37.7241C182.124 37.9241 180.424 37.9241 178.724 37.7241V6.12412C180.424 5.92412 182.124 5.92412 183.824 6.12412V14.6241L183.524 18.3241H183.724C184.524 15.6241 187.224 14.6241 191.024 14.6241C195.324 14.6241 198.524 16.3241 198.524 21.1241V37.8241C196.824 38.0241 195.124 38.0241 193.424 37.8241V23.3241Z" />
<path d="M209.824 19.5239H206.424C206.224 18.2239 206.224 16.8239 206.424 15.5239L209.824 15.3239V9.42393C211.524 9.22393 213.224 9.22393 214.924 9.42393V15.3239H221.424C221.624 16.7239 221.624 18.2239 221.424 19.6239H214.924V29.6239C214.924 33.7239 216.824 34.0239 218.624 34.0239C219.524 34.0239 220.524 33.9239 221.424 33.7239C221.624 35.1239 221.624 36.6239 221.424 38.0239C220.024 38.3239 218.624 38.4239 217.124 38.4239C213.324 38.4239 209.724 36.9239 209.724 31.3239V19.5239H209.824Z" />
<path d="M249.324 25.3241L247.124 25.5241V37.8241C245.424 38.0241 243.624 38.0241 241.924 37.8241V8.22412C243.624 8.02412 245.424 8.02412 247.124 8.22412V20.8241L249.824 20.5241L257.624 8.12412C259.524 7.92412 261.324 7.92412 263.224 8.12412L253.724 22.8241L263.824 37.8241C261.824 38.0241 259.824 38.0241 257.824 37.8241L249.324 25.3241Z" />
<path d="M285.524 23.3241C285.524 19.5241 283.624 19.0241 281.024 19.0241C277.724 19.0241 276.724 19.8241 275.824 22.4241V37.7241C274.124 37.9241 272.424 37.9241 270.724 37.7241V15.1241C272.224 14.9241 273.724 14.9241 275.224 15.1241L275.624 18.4241H275.924C276.724 15.7241 279.424 14.7241 283.224 14.7241C287.524 14.7241 290.724 16.4241 290.724 21.2241V37.9241C289.024 38.1241 287.324 38.1241 285.624 37.9241V23.3241H285.524Z" />
<path d="M318.224 31.224C318.224 36.424 314.324 38.324 308.424 38.324C302.524 38.324 298.624 36.524 298.624 31.224V21.824C298.624 16.424 302.524 14.624 308.424 14.624C314.324 14.624 318.224 16.424 318.224 21.824V31.224ZM313.124 22.924C313.124 19.524 310.924 19.124 308.424 19.124C305.924 19.124 303.724 19.524 303.724 22.924V30.124C303.724 33.424 305.924 33.924 308.424 33.924C310.924 33.924 313.124 33.424 313.124 30.124V22.924Z" />
<path d="M328.524 19.5239H325.124C324.924 18.2239 324.924 16.8239 325.124 15.5239L328.524 15.3239V9.42393C330.224 9.22393 331.924 9.22393 333.624 9.42393V15.3239H340.124C340.324 16.7239 340.324 18.2239 340.124 19.6239H333.624V29.6239C333.624 33.7239 335.524 34.0239 337.324 34.0239C338.224 34.0239 339.224 33.9239 340.124 33.7239C340.324 35.1239 340.324 36.6239 340.124 38.0239C338.724 38.3239 337.324 38.4239 335.824 38.4239C332.024 38.4239 328.424 36.9239 328.424 31.3239L328.524 19.5239Z" />
</svg>
