<?xml version="1.0" encoding="utf-8"?>
<!-- Generator: Adobe Illustrator 24.1.3, SVG Export Plug-In . SVG Version: 6.00 Build 0)  -->
<svg version="1.1" id="レイヤー_1" xmlns="http://www.w3.org/2000/svg" xmlns:xlink="http://www.w3.org/1999/xlink" x="0px"
	 y="0px" viewBox="0 0 24 24" style="enable-background:new 0 0 24 24;" xml:space="preserve">
<path d="M16.9,20.9H7.1c-1.4,0-2.5-1.1-2.5-2.5V5.6c0-1.4,1.1-2.5,2.5-2.5h6.4c0.3,0,0.4,0.1,0.5,0.3L19,8.3
	c0.2,0.1,0.3,0.3,0.3,0.5v9.7C19.3,19.9,18.3,20.9,16.9,20.9z M7.1,4.7C6.6,4.7,6.4,5,6.4,5.6v13c0,0.5,0.4,0.8,0.8,0.8h9.7
	c0.5,0,0.8-0.4,0.8-0.8V9.1l-4.5-4.4H7.1z"/>
<path d="M18.4,9.5h-4.9c-0.5,0-0.8-0.4-0.8-0.8V3.9c0-0.5,0.4-0.8,0.8-0.8s0.8,0.4,0.8,0.8V8h4.1c0.5,0,0.8,0.4,0.8,0.8
	S19,9.5,18.4,9.5z"/>
<path d="M15.3,13.6H8.7c-0.5,0-0.8-0.4-0.8-0.8S8.3,12,8.7,12h6.4c0.5,0,0.8,0.4,0.8,0.8S15.7,13.6,15.3,13.6z"/>
<path d="M15.3,16.9H8.7c-0.5,0-0.8-0.4-0.8-0.8s0.4-0.8,0.8-0.8h6.4c0.5,0,0.8,0.4,0.8,0.8C16.1,16.5,15.7,16.9,15.3,16.9z"/>
<path d="M10.4,10.4H8.7c-0.5,0-0.8-0.4-0.8-0.8s0.4-0.8,0.8-0.8h1.6c0.5,0,0.8,0.4,0.8,0.8S10.9,10.4,10.4,10.4z"/>
</svg>
