<svg viewBox="0 0 30 30" fill="none" xmlns="http://www.w3.org/2000/svg">
<path fill-rule="evenodd" clip-rule="evenodd" d="M14.3861 4.21065C14.7472 3.92978 15.2528 3.92978 15.6139 4.21065L24.6139 11.2106C24.8575 11.4001 25 11.6914 25 12V23C25 23.7957 24.6839 24.5587 24.1213 25.1213C23.5587 25.6839 22.7957 26 22 26H8C7.20435 26 6.44129 25.6839 5.87868 25.1213C5.31607 24.5587 5 23.7957 5 23V12C5 11.6914 5.14247 11.4001 5.38606 11.2106L14.3861 4.21065ZM7 12.4891V23C7 23.2652 7.10536 23.5196 7.29289 23.7071C7.48043 23.8946 7.73478 24 8 24H22C22.2652 24 22.5196 23.8946 22.7071 23.7071C22.8946 23.5196 23 23.2652 23 23V12.4891L15 6.26686L7 12.4891Z" />
<path fill-rule="evenodd" clip-rule="evenodd" d="M11 15C11 14.4477 11.4477 14 12 14H18C18.5523 14 19 14.4477 19 15V25C19 25.5523 18.5523 26 18 26C17.4477 26 17 25.5523 17 25V16H13V25C13 25.5523 12.5523 26 12 26C11.4477 26 11 25.5523 11 25V15Z" />
</svg>
