<svg viewBox="0 0 30 30" fill="none" xmlns="http://www.w3.org/2000/svg">
<path d="M22.375 5H6.625C5.17715 5 4 6.17715 4 7.625V19.4375C4 20.8854 5.17715 22.0625 6.625 22.0625H10.5625V25.5078C10.5625 25.799 10.8004 26 11.0547 26C11.1531 26 11.2557 25.9713 11.3459 25.9016L16.4688 22.0625H22.375C23.8229 22.0625 25 20.8854 25 19.4375V7.625C25 6.17715 23.8229 5 22.375 5ZM23.0312 19.4375C23.0312 19.7984 22.7359 20.0938 22.375 20.0938H15.8125L15.2875 20.4875L12.5312 22.5547V20.0938H6.625C6.26406 20.0938 5.96875 19.7984 5.96875 19.4375V7.625C5.96875 7.26406 6.26406 6.96875 6.625 6.96875H22.375C22.7359 6.96875 23.0312 7.26406 23.0312 7.625V19.4375ZM19.0938 10.5781H9.90625C9.54531 10.5781 9.25 10.8734 9.25 11.2344V11.8906C9.25 12.2516 9.54531 12.5469 9.90625 12.5469H19.0938C19.4547 12.5469 19.75 12.2516 19.75 11.8906V11.2344C19.75 10.8734 19.4547 10.5781 19.0938 10.5781ZM15.1562 14.5156H9.90625C9.54531 14.5156 9.25 14.8109 9.25 15.1719V15.8281C9.25 16.1891 9.54531 16.4844 9.90625 16.4844H15.1562C15.5172 16.4844 15.8125 16.1891 15.8125 15.8281V15.1719C15.8125 14.8109 15.5172 14.5156 15.1562 14.5156Z" />
</svg>
