<svg viewBox="0 0 30 30" fill="none" xmlns="http://www.w3.org/2000/svg">
<path fill-rule="evenodd" clip-rule="evenodd" d="M21 6C19.8954 6 19 6.89543 19 8C19 9.10457 19.8954 10 21 10C22.1046 10 23 9.10457 23 8C23 6.89543 22.1046 6 21 6ZM17 8C17 5.79086 18.7909 4 21 4C23.2091 4 25 5.79086 25 8C25 10.2091 23.2091 12 21 12C18.7909 12 17 10.2091 17 8Z" />
<path fill-rule="evenodd" clip-rule="evenodd" d="M9 13C7.89543 13 7 13.8954 7 15C7 16.1046 7.89543 17 9 17C10.1046 17 11 16.1046 11 15C11 13.8954 10.1046 13 9 13ZM5 15C5 12.7909 6.79086 11 9 11C11.2091 11 13 12.7909 13 15C13 17.2091 11.2091 19 9 19C6.79086 19 5 17.2091 5 15Z" />
<path fill-rule="evenodd" clip-rule="evenodd" d="M21 20C19.8954 20 19 20.8954 19 22C19 23.1046 19.8954 24 21 24C22.1046 24 23 23.1046 23 22C23 20.8954 22.1046 20 21 20ZM17 22C17 19.7909 18.7909 18 21 18C23.2091 18 25 19.7909 25 22C25 24.2091 23.2091 26 21 26C18.7909 26 17 24.2091 17 22Z" />
<path fill-rule="evenodd" clip-rule="evenodd" d="M10.726 16.0066C11.0041 15.5294 11.6163 15.368 12.0935 15.646L18.9235 19.626C19.4007 19.9041 19.5621 20.5163 19.284 20.9935C19.006 21.4707 18.3937 21.6321 17.9165 21.3541L11.0865 17.3741C10.6094 17.096 10.4479 16.4838 10.726 16.0066Z" />
<path fill-rule="evenodd" clip-rule="evenodd" d="M19.2737 9.00602C19.5521 9.48302 19.391 10.0954 18.914 10.3737L12.094 14.3537C11.617 14.6321 11.0047 14.4711 10.7263 13.9941C10.448 13.5171 10.609 12.9047 11.086 12.6264L17.906 8.64636C18.383 8.368 18.9953 8.52902 19.2737 9.00602Z" />
</svg>
