<svg viewBox="0 0 30 30" fill="none" xmlns="http://www.w3.org/2000/svg">
<path fill-rule="evenodd" clip-rule="evenodd" d="M7.46447 18.4645C8.40215 17.5268 9.67392 17 11 17H19C20.3261 17 21.5979 17.5268 22.5355 18.4645C23.4732 19.4021 24 20.6739 24 22V24C24 24.5523 23.5523 25 23 25C22.4477 25 22 24.5523 22 24V22C22 21.2044 21.6839 20.4413 21.1213 19.8787C20.5587 19.3161 19.7956 19 19 19H11C10.2044 19 9.44129 19.3161 8.87868 19.8787C8.31607 20.4413 8 21.2044 8 22V24C8 24.5523 7.55228 25 7 25C6.44772 25 6 24.5523 6 24V22C6 20.6739 6.52678 19.4021 7.46447 18.4645Z"/>
<path fill-rule="evenodd" clip-rule="evenodd" d="M15 7C13.3431 7 12 8.34315 12 10C12 11.6569 13.3431 13 15 13C16.6569 13 18 11.6569 18 10C18 8.34315 16.6569 7 15 7ZM10 10C10 7.23858 12.2386 5 15 5C17.7614 5 20 7.23858 20 10C20 12.7614 17.7614 15 15 15C12.2386 15 10 12.7614 10 10Z"/>
</svg>
