<?xml version="1.0" encoding="utf-8"?>
<!-- Generator: Adobe Illustrator 24.1.3, SVG Export Plug-In . SVG Version: 6.00 Build 0)  -->
<svg version="1.1" id="レイヤー_1" xmlns="http://www.w3.org/2000/svg" xmlns:xlink="http://www.w3.org/1999/xlink" x="0px"
	 y="0px" viewBox="0 0 24 24" style="enable-background:new 0 0 24 24;" xml:space="preserve">
<path d="M18,21H6c-1.7,0-3-1.3-3-3V6c0-1.7,1.3-3,3-3h12c1.7,0,3,1.3,3,3v12C21,19.7,19.7,21,18,21z M6,5C5.4,5,5,5.4,5,6v12
	c0,0.6,0.4,1,1,1h12c0.6,0,1-0.4,1-1V6c0-0.6-0.4-1-1-1H6z"/>
<path d="M15,16H9c-0.6,0-1-0.4-1-1V9c0-0.6,0.4-1,1-1h6c0.6,0,1,0.4,1,1v6C16,15.6,15.6,16,15,16z M10,14h4v-4h-4V14z"/>
<path d="M9,5C8.4,5,8,4.6,8,4V1c0-0.6,0.4-1,1-1s1,0.4,1,1v3C10,4.6,9.6,5,9,5z"/>
<path d="M15,5c-0.6,0-1-0.4-1-1V1c0-0.6,0.4-1,1-1s1,0.4,1,1v3C16,4.6,15.6,5,15,5z"/>
<path d="M9,24c-0.6,0-1-0.4-1-1v-3c0-0.6,0.4-1,1-1s1,0.4,1,1v3C10,23.6,9.6,24,9,24z"/>
<path d="M15,24c-0.6,0-1-0.4-1-1v-3c0-0.6,0.4-1,1-1s1,0.4,1,1v3C16,23.6,15.6,24,15,24z"/>
<path d="M23,10h-3c-0.6,0-1-0.4-1-1s0.4-1,1-1h3c0.6,0,1,0.4,1,1S23.6,10,23,10z"/>
<path d="M23,15h-3c-0.6,0-1-0.4-1-1s0.4-1,1-1h3c0.6,0,1,0.4,1,1S23.6,15,23,15z"/>
<path d="M4,10H1c-0.6,0-1-0.4-1-1s0.4-1,1-1h3c0.6,0,1,0.4,1,1S4.6,10,4,10z"/>
<path d="M4,15H1c-0.6,0-1-0.4-1-1s0.4-1,1-1h3c0.6,0,1,0.4,1,1S4.6,15,4,15z"/>
</svg>
