<svg viewBox="0 0 30 30" fill="none" xmlns="http://www.w3.org/2000/svg">
<path d="M25.4302 10.0603C25.446 10.2823 25.446 10.5044 25.446 10.7265C25.446 17.5 20.2906 25.3045 10.868 25.3045C7.96509 25.3045 5.26841 24.4638 3 23.0044C3.41245 23.052 3.80898 23.0679 4.2373 23.0679C6.63257 23.0679 8.83755 22.2589 10.5983 20.8788C8.3458 20.8312 6.45811 19.356 5.80771 17.3255C6.125 17.373 6.44224 17.4048 6.77539 17.4048C7.2354 17.4048 7.69546 17.3413 8.12373 17.2303C5.77603 16.7544 4.01519 14.6922 4.01519 12.2018V12.1383C4.69727 12.519 5.49048 12.757 6.33115 12.7887C4.95107 11.8686 4.04692 10.2982 4.04692 8.52153C4.04692 7.56978 4.30068 6.69731 4.74487 5.93589C7.26709 9.04502 11.0583 11.0754 15.3096 11.2976C15.2303 10.9168 15.1827 10.5203 15.1827 10.1237C15.1827 7.3001 17.4669 5 20.3064 5C21.7816 5 23.1141 5.61865 24.05 6.61802C25.208 6.39595 26.3184 5.96763 27.302 5.38071C26.9212 6.57046 26.1122 7.56982 25.0494 8.2043C26.0805 8.09331 27.0799 7.80771 27.9999 7.41118C27.302 8.42637 26.4295 9.33052 25.4302 10.0603Z" />
</svg>
