<?xml version="1.0" encoding="utf-8"?>
<!-- Generator: Adobe Illustrator 24.1.3, SVG Export Plug-In . SVG Version: 6.00 Build 0)  -->
<svg version="1.1" id="レイヤー_1" xmlns="http://www.w3.org/2000/svg" xmlns:xlink="http://www.w3.org/1999/xlink"  viewBox="0 0 30 30" style="enable-background:new 0 0 30 30;" xml:space="preserve">
<g>
	<path d="M26.9,14.6L26.9,14.6L26.9,14.6L26.9,14.6c0-0.1,0-0.1-0.1-0.1c0-0.1-0.1-0.2-0.2-0.3c-0.1-0.2-0.3-0.6-0.6-1
		c-0.5-0.8-1.3-1.8-2.3-2.9c-2-2.1-5-4.3-8.9-4.3s-6.9,2.2-8.9,4.3c-1,1.1-1.7,2.1-2.3,2.9c-0.3,0.4-0.4,0.7-0.6,1
		c-0.1,0.1-0.1,0.2-0.2,0.3c0,0,0,0.1,0,0.1l0,0l0,0l0,0c0,0,0,0,0,0c-0.1,0.3-0.1,0.6,0,0.9l0,0l0,0l0,0c0,0,0,0,0,0.1
		c0,0.1,0.1,0.2,0.2,0.3c0.1,0.2,0.3,0.6,0.6,1c0.5,0.8,1.3,1.8,2.3,2.9c2,2.1,5,4.3,8.9,4.3s6.9-2.2,8.9-4.3c1-1.1,1.7-2.1,2.3-2.9
		c0.3-0.4,0.4-0.7,0.6-1c0.1-0.1,0.1-0.2,0.2-0.3c0,0,0-0.1,0-0.1l0,0l0,0l0,0c0,0,0,0,0,0C27,15.2,27,14.8,26.9,14.6z M24.4,15.7
		c-0.5,0.7-1.1,1.7-2,2.6C20.6,20.2,18.1,22,15,22s-5.6-1.8-7.4-3.7c-0.9-0.9-1.6-1.9-2-2.6c-0.2-0.3-0.3-0.5-0.4-0.7
		c0.1-0.2,0.3-0.4,0.4-0.7c0.5-0.7,1.1-1.7,2-2.6C9.4,9.8,11.9,8,15,8s5.6,1.8,7.4,3.7c0.9,0.9,1.6,1.9,2,2.6
		c0.2,0.3,0.3,0.5,0.4,0.7C24.8,15.2,24.6,15.4,24.4,15.7z"/>
	<path d="M15,11c-2.2,0-4,1.8-4,4s1.8,4,4,4s4-1.8,4-4S17.2,11,15,11z M15,17c-1.1,0-2-0.9-2-2s0.9-2,2-2s2,0.9,2,2S16.1,17,15,17z"
		/>
</g>
</svg>
